<svg width="198" height="36" viewBox="0 0 198 36" fill="none" xmlns="http://www.w3.org/2000/svg">
<g clip-path="url(#clip0_183_364)">
<path d="M27.5154 15.7993C27.0029 16.3141 26.6105 16.9354 26.366 17.6188C26.1215 18.3023 26.0311 19.0312 26.101 19.7536L26.0767 19.7293C26.1486 20.5796 26.0337 21.4353 25.7401 22.2368C25.4465 23.0382 24.9814 23.766 24.3771 24.3694C23.7727 24.9728 23.0437 25.4373 22.2409 25.7303C21.4383 26.0233 20.5811 26.1381 19.7295 26.0663L19.7539 26.0906C18.7351 25.9959 17.7119 26.2172 16.8237 26.7244C15.9356 27.2316 15.2257 27.9999 14.791 28.9247C14.3562 29.8495 14.2176 30.8855 14.3942 31.8918C14.571 32.898 15.0541 33.8253 15.7779 34.5473C16.5017 35.2693 17.4309 35.7508 18.4389 35.9262C19.4469 36.1017 20.4844 35.9624 21.4103 35.5275C22.3361 35.0926 23.105 34.3833 23.6122 33.496C24.1194 32.6088 24.3402 31.5871 24.2444 30.57L24.2701 30.5943C24.1982 29.744 24.313 28.8882 24.6066 28.0867C24.9001 27.2854 25.3654 26.5576 25.9697 25.9541C26.5741 25.3508 27.3031 24.8862 28.1057 24.5933C28.9085 24.3002 29.7655 24.1854 30.6173 24.2572L30.5916 24.2329C31.4237 24.3076 32.2614 24.1714 33.0269 23.8368C33.7922 23.5023 34.4607 22.9803 34.9702 22.3191C35.4797 21.658 35.814 20.8791 35.9416 20.0547C36.0694 19.2303 35.9866 18.3871 35.7011 17.603C35.4155 16.819 34.9363 16.1197 34.3079 15.5698C33.6796 15.02 32.9223 14.6374 32.1064 14.4575C31.2905 14.2777 30.4423 14.3063 29.6405 14.5408C28.8386 14.7755 28.1091 15.2083 27.5194 15.7993H27.5154Z" fill="url(#paint0_linear_183_364)"/>
<path d="M17.5403 22.9072L17.5147 22.8829C18.2385 22.9557 18.9695 22.867 19.6549 22.6232C20.3402 22.3794 20.9627 21.9866 21.4773 21.4732C21.9919 20.9598 22.3859 20.3385 22.6305 19.6545C22.8752 18.9704 22.9646 18.2407 22.8923 17.5179L22.918 17.5422C22.846 16.6918 22.961 15.8362 23.2544 15.0347C23.5479 14.2333 24.0132 13.5055 24.6175 12.902C25.2219 12.2987 25.9509 11.8342 26.7536 11.5412C27.5563 11.2481 28.4134 11.1334 29.2651 11.2052L29.2394 11.1809C30.2583 11.2765 31.2817 11.0558 32.1704 10.5492C33.0592 10.0426 33.7696 9.2746 34.205 8.35001C34.6404 7.42543 34.7796 6.38925 34.6035 5.38279C34.4274 4.37633 33.9447 3.44862 33.221 2.72616C32.4975 2.00372 31.5683 1.52171 30.5602 1.34591C29.5522 1.1701 28.5144 1.30903 27.5883 1.74376C26.6621 2.17849 25.893 2.88786 25.3856 3.77511C24.8781 4.66235 24.6571 5.68428 24.7529 6.70149L24.7285 6.67584C24.8006 7.52621 24.6859 8.38205 24.3925 9.18359C24.0991 9.98512 23.6338 10.713 23.0295 11.3166C22.4251 11.9199 21.696 12.3844 20.8932 12.6774C20.0903 12.9703 19.2331 13.0848 18.3814 13.0129L18.4057 13.0385C17.6819 12.9658 16.9508 13.0545 16.2655 13.2983C15.5802 13.5419 14.9577 13.9348 14.443 14.4482C13.9284 14.9616 13.5345 15.5829 13.2898 16.267C13.0452 16.951 12.9558 17.6807 13.0281 18.4035L13.0038 18.3792C13.0754 19.2295 12.9604 20.0851 12.6668 20.8865C12.3731 21.6877 11.908 22.4155 11.3037 23.0189C10.6993 23.6222 9.97046 24.0866 9.16786 24.3798C8.36526 24.6729 7.50826 24.7878 6.65664 24.7163L6.68098 24.7406C5.66214 24.645 4.63858 24.8656 3.74992 25.3722C2.86126 25.8789 2.15076 26.6468 1.71535 27.5714C1.27992 28.4961 1.14075 29.5322 1.31685 30.5386C1.49294 31.5451 1.97572 32.4728 2.69931 33.1952C3.42292 33.9178 4.35211 34.3997 5.36018 34.5755C6.36824 34.7513 7.40608 34.6124 8.33214 34.1776C9.2582 33.7429 10.0274 33.0336 10.5348 32.1464C11.0423 31.259 11.2633 30.2372 11.1675 29.2199L11.1932 29.2442C11.1213 28.3939 11.2362 27.5382 11.5298 26.7367C11.8232 25.9353 12.2885 25.2075 12.8928 24.6041C13.4972 24.0007 14.2261 23.5362 15.0288 23.2432C15.8316 22.9501 16.6886 22.8354 17.5403 22.9072Z" fill="url(#paint1_linear_183_364)"/>
<path d="M8.47803 20.1977C8.99053 19.6831 9.38291 19.0618 9.62717 18.3783C9.87143 17.6948 9.96154 16.9657 9.89106 16.2435L9.91674 16.2678C9.8448 15.4173 9.95968 14.5612 10.2534 13.7596C10.5471 12.9579 11.0126 12.23 11.6173 11.6265C12.2219 11.0231 12.9512 10.5587 13.7542 10.2658C14.5573 9.97291 15.4147 9.85856 16.2666 9.93076L16.2409 9.90646C17.2594 10.0017 18.2826 9.78101 19.1708 9.27443C20.059 8.76786 20.7691 8.00006 21.2043 7.07576C21.6395 6.15145 21.7785 5.11564 21.6024 4.10956C21.4264 3.10348 20.9436 2.17612 20.2204 1.45394C19.4971 0.731756 18.5681 0.249904 17.5605 0.0741036C16.5528 -0.10171 15.5153 0.0370994 14.5896 0.471565C13.6638 0.906031 12.8948 1.61502 12.3875 2.50186C11.88 3.38869 11.6589 4.4102 11.7544 5.42707L11.73 5.40277C11.802 6.25308 11.687 7.10882 11.3935 7.91025C11.0999 8.71168 10.6348 9.4395 10.0304 10.0429C9.42606 10.6463 8.69707 11.1108 7.89436 11.4038C7.09166 11.6969 6.23456 11.8116 5.38289 11.7398L5.40723 11.7641C4.57506 11.6896 3.7375 11.8261 2.9722 12.1607C2.20689 12.4954 1.53858 13.0176 1.0292 13.6788C0.519817 14.3399 0.185856 15.1189 0.0582369 15.9432C-0.0693683 16.7677 0.0135068 17.6109 0.299182 18.3948C0.584857 19.1787 1.06411 19.8779 1.69251 20.4276C2.32091 20.9775 3.07813 21.3599 3.89401 21.5398C4.70987 21.7195 5.558 21.6907 6.3598 21.4562C7.16159 21.2216 7.89109 20.7888 8.48072 20.1977H8.47803Z" fill="url(#paint2_linear_183_364)"/>
<path d="M56.5031 6.83437L56.475 6.84844C58.6266 6.84844 60.3703 7.59375 61.7062 9.07031C63.0422 10.5469 63.7172 12.2203 63.7172 14.0906C63.7172 15.9891 63.0422 17.6766 61.6922 19.1531C60.3422 20.6297 58.5422 21.3609 56.3062 21.3609H51.525V27H46.8V6.83437H56.5031ZM56.1656 17.1L56.1797 17.0859C57.0234 17.0859 57.7125 16.7906 58.2609 16.2C58.8094 15.6094 59.0766 14.9203 59.0766 14.1328C59.0766 13.3453 58.8234 12.6562 58.3031 12.0656C57.7828 11.475 57.1359 11.1797 56.3625 11.1797H51.4969V17.1H56.1656Z" fill="#151A20"/>
<path d="M70.2281 14.3016L70.2141 14.2734C70.65 13.4719 71.2687 12.8672 72.0562 12.4734C72.8437 12.0797 73.7578 11.9531 74.8125 12.0797V16.3969C73.2375 16.1297 72.0844 16.3547 71.3391 17.0719C70.5937 17.7891 70.2281 19.0547 70.2281 20.8687V27H65.6156V12.3187H70.2281V14.3016Z" fill="#151A20"/>
<path d="M83.4328 27.4078V27.4219C81.1547 27.4219 79.2703 26.6766 77.7797 25.2C76.2891 23.7234 75.5437 21.8812 75.5437 19.6734C75.5437 17.4656 76.2891 15.6234 77.7797 14.1469C79.2703 12.6703 81.1547 11.925 83.4328 11.925C85.7109 11.925 87.5953 12.6562 89.0859 14.1328C90.5766 15.6094 91.3219 17.4516 91.3219 19.6594C91.3219 21.8672 90.5766 23.7094 89.0859 25.1859C87.5953 26.6625 85.7109 27.4078 83.4328 27.4078ZM83.4328 23.2734V23.2875C84.4734 23.2875 85.3031 22.95 85.9219 22.275C86.5406 21.6 86.85 20.7281 86.85 19.6734C86.85 18.6187 86.5406 17.7609 85.9219 17.0859C85.3031 16.4109 84.4734 16.0734 83.4328 16.0734C82.3922 16.0734 81.5625 16.4109 80.9437 17.0859C80.325 17.7609 80.0156 18.6187 80.0156 19.6734C80.0156 20.7281 80.325 21.5859 80.9437 22.2609C81.5625 22.9359 82.3922 23.2734 83.4328 23.2734Z" fill="#151A20"/>
<path d="M109.111 11.1656H98.6062V14.6672H107.648V18.8438H98.6062V22.6828H109.083V27H93.9375V6.83437H109.111V11.1656Z" fill="#151A20"/>
<path d="M111.994 27V5.97656H116.606V27H111.994Z" fill="#151A20"/>
<path d="M127.266 27.4078L127.252 27.4219C124.847 27.4219 122.906 26.7047 121.416 25.2703C119.925 23.8359 119.18 21.9797 119.18 19.6875C119.18 17.4375 119.897 15.5813 121.331 14.1187C122.766 12.6562 124.636 11.925 126.956 11.925C129.319 11.925 131.189 12.6422 132.567 14.0766C133.945 15.5109 134.634 17.325 134.634 19.5187C134.634 20.0953 134.592 20.6016 134.522 21.0375H123.666C124.017 22.725 125.241 23.5688 127.336 23.5688C128.742 23.5688 129.727 23.0766 130.275 22.0781L134.423 23.2875C133.959 24.3422 133.102 25.2984 131.836 26.1422C130.57 26.9859 129.052 27.4078 127.266 27.4078ZM123.68 18.2812H130.148C130.078 17.5922 129.755 17.0016 129.164 16.5094C128.573 16.0172 127.828 15.7781 126.928 15.7781C126.028 15.7781 125.283 16.0312 124.706 16.5234C124.13 17.0156 123.792 17.6062 123.68 18.2812Z" fill="#151A20"/>
<path d="M146.798 12.3187H151.833L145.912 27H140.723L134.789 12.3187H139.852L143.311 21.7547L146.798 12.3187Z" fill="#151A20"/>
<path d="M159.328 27.4078H159.314C157.317 27.4078 155.63 26.6625 154.252 25.1859C152.873 23.7094 152.184 21.8672 152.184 19.6594C152.184 17.4516 152.873 15.6094 154.252 14.1328C155.63 12.6562 157.317 11.9109 159.314 11.9109C161.058 11.9109 162.464 12.5016 163.547 13.6687V12.3187H168.159V27H163.547V25.65C162.436 26.8172 161.03 27.4078 159.328 27.4078ZM160.158 23.3156L160.144 23.3297C161.17 23.3297 162.014 22.9922 162.675 22.3031C163.336 21.6141 163.673 20.7281 163.673 19.6453C163.673 18.5625 163.336 17.6906 162.675 17.0156C162.014 16.3406 161.17 16.0031 160.158 16.0031C159.159 16.0031 158.344 16.3406 157.697 17.0156C157.05 17.6906 156.727 18.5625 156.727 19.6453C156.727 20.7422 157.05 21.6281 157.697 22.3031C158.344 22.9781 159.159 23.3156 160.158 23.3156Z" fill="#151A20"/>
<path d="M180.141 22.8516L181.252 26.5219C180.042 27 178.847 27.2391 177.652 27.2391C175.922 27.2391 174.628 26.7469 173.756 25.7625C172.884 24.7781 172.448 23.4281 172.448 21.6984V16.3406H170.17V12.3187H172.448V7.70625H177.061V12.3187H181.012V16.3406H177.061V21.6984C177.061 22.725 177.567 23.2312 178.58 23.2312C179.142 23.2312 179.662 23.1047 180.141 22.8516Z" fill="#151A20"/>
<path d="M190.153 27.4078L190.139 27.4219C187.734 27.4219 185.794 26.7047 184.303 25.2703C182.812 23.8359 182.067 21.9797 182.067 19.6875C182.067 17.4375 182.784 15.5813 184.219 14.1187C185.653 12.6562 187.523 11.925 189.844 11.925C192.206 11.925 194.077 12.6422 195.455 14.0766C196.833 15.5109 197.522 17.325 197.522 19.5187C197.522 20.0953 197.48 20.6016 197.409 21.0375H186.553C186.905 22.725 188.128 23.5688 190.223 23.5688C191.63 23.5688 192.614 23.0766 193.162 22.0781L197.311 23.2875C196.847 24.3422 195.989 25.2984 194.723 26.1422C193.458 26.9859 191.939 27.4078 190.153 27.4078ZM186.567 18.2812H193.036C192.966 17.5922 192.642 17.0016 192.052 16.5094C191.461 16.0172 190.716 15.7781 189.816 15.7781C188.916 15.7781 188.17 16.0312 187.594 16.5234C187.017 17.0156 186.68 17.6062 186.567 18.2812Z" fill="#151A20"/>
</g>
<defs>
<linearGradient id="paint0_linear_183_364" x1="18" y1="0" x2="18" y2="36" gradientUnits="userSpaceOnUse">
<stop stop-color="#F97C07"/>
<stop offset="1" stop-color="#DD5702"/>
</linearGradient>
<linearGradient id="paint1_linear_183_364" x1="18" y1="0" x2="18" y2="36" gradientUnits="userSpaceOnUse">
<stop stop-color="#F97C07"/>
<stop offset="1" stop-color="#DD5702"/>
</linearGradient>
<linearGradient id="paint2_linear_183_364" x1="18" y1="0" x2="18" y2="36" gradientUnits="userSpaceOnUse">
<stop stop-color="#F97C07"/>
<stop offset="1" stop-color="#DD5702"/>
</linearGradient>
<clipPath id="clip0_183_364">
<rect width="198" height="36" fill="white"/>
</clipPath>
</defs>
</svg>
